<svg xmlns="http://www.w3.org/2000/svg" xmlns:xlink="http://www.w3.org/1999/xlink" width="331" zoomAndPan="magnify" viewBox="0 0 248.25 227.249992" height="303" preserveAspectRatio="xMidYMid meet" version="1.0"><defs><g/><clipPath id="b3343f60fa"><path d="M 0.0351562 0 L 247 0 L 247 226.503906 L 0.0351562 226.503906 Z M 0.0351562 0 " clip-rule="nonzero"/></clipPath></defs><g clip-path="url(#b3343f60fa)"><path fill="#675196" d="M 103.757812 19.308594 L 91.273438 21.710938 L 93.21875 21.242188 L 99.625 19.992188 L 103.757812 19.308594 M 62.6875 15.433594 L 58.933594 17.632812 L 51.625 22.855469 L 44.898438 28.402344 L 42.40625 30.792969 L 46.34375 26.808594 L 56.101562 19.003906 L 62.6875 15.433594 M 35.683594 37.597656 L 33.953125 39.457031 L 34.648438 38.648438 L 35.683594 37.597656 M 189.292969 37.894531 L 193.796875 41.078125 L 195.023438 42.292969 C 192.765625 40.589844 190.855469 39.121094 189.292969 37.894531 M 193.957031 40.105469 L 197.890625 43.339844 L 202.835938 48.742188 L 207.148438 54.183594 L 210.367188 59.25 C 215.894531 69.988281 218.972656 79.203125 219.609375 86.894531 C 219.148438 85.511719 218.613281 83.191406 218.003906 79.9375 L 215.855469 73.503906 L 212.472656 65.316406 L 207.617188 56.480469 C 204.699219 52.554688 203.304688 50.738281 203.433594 51.027344 C 200.96875 48.066406 199.011719 45.914062 197.566406 44.570312 L 195.511719 41.796875 L 193.957031 40.105469 M 198.421875 45.726562 L 201.761719 49.453125 L 205.371094 53.984375 L 208.34375 58.246094 L 208.953125 59.367188 C 210.5625 62.378906 212.085938 65.582031 213.511719 68.972656 C 214.679688 72.109375 215.652344 74.878906 216.429688 77.277344 L 217.679688 81.769531 C 218.054688 84.714844 218.421875 87.144531 218.785156 89.058594 L 219.257812 92.878906 L 218.851562 96.90625 L 219.082031 100.9375 C 219.144531 104.082031 219.132812 106.027344 219.054688 106.773438 L 218.128906 98.007812 L 216.828125 89.910156 L 214.765625 81.652344 L 212.332031 73.449219 L 209.21875 65.222656 L 205.371094 57.117188 L 200.976562 49.175781 L 198.421875 45.726562 M 133.652344 132.027344 L 134.023438 132.230469 L 134.953125 132.578125 L 135.257812 132.535156 L 135.613281 132.746094 L 136.261719 134.21875 L 136.414062 135.464844 L 135.082031 135.175781 L 133.652344 132.027344 M 172.5625 20.53125 L 182.414062 25.78125 L 191.652344 32.042969 L 199.660156 38.664062 L 206.265625 45.6875 L 211.773438 52.679688 L 215.761719 59.59375 C 218.28125 64.460938 220.4375 69.457031 222.230469 74.578125 C 223.945312 80.226562 225.238281 86.066406 226.113281 92.101562 C 226.496094 98.929688 226.65625 102.796875 226.59375 103.707031 C 226.515625 106.136719 226.359375 108.90625 226.125 112.023438 L 225.246094 118.042969 L 223.953125 124.945312 C 222.097656 131.359375 220.886719 135.320312 220.316406 136.832031 L 220.398438 129.167969 L 220.273438 127.324219 L 221.34375 123.796875 C 221.753906 119.144531 222.210938 115.1875 222.71875 111.929688 C 222.847656 109.28125 222.90625 107.019531 222.886719 105.148438 C 222.71875 102.75 222.664062 99.097656 222.71875 94.191406 C 222.089844 89.164062 221.363281 84.753906 220.542969 80.96875 C 219.425781 76.800781 217.914062 72.417969 216.011719 67.816406 L 211.425781 58.3125 L 206.503906 51.058594 L 200.25 43.777344 C 195.519531 39.339844 191.230469 35.785156 187.371094 33.113281 L 183.148438 28.859375 C 178.796875 25.292969 175.269531 22.515625 172.5625 20.53125 M 136.53125 136.972656 L 136.550781 136.972656 L 136.605469 136.976562 C 136.609375 137.007812 136.613281 137.035156 136.613281 137.0625 C 136.585938 137.035156 136.558594 137.003906 136.53125 136.972656 M 67.972656 42.289062 L 59.191406 51.140625 L 51.246094 60.867188 L 42.277344 74.492188 L 40.894531 76.917969 C 37.3125 83.453125 34.546875 90.582031 32.59375 98.300781 L 31.386719 104.328125 L 30.664062 110.621094 L 30.449219 116.734375 L 30.65625 122.253906 C 30.90625 124.808594 31.234375 127.25 31.640625 129.570312 C 32.484375 134.007812 33.144531 136.722656 33.617188 137.71875 C 33.894531 140.253906 34.265625 142.714844 34.734375 145.101562 C 34.921875 146.082031 35.042969 146.578125 35.09375 146.589844 L 34.761719 143.246094 C 35.851562 148.785156 36.488281 151.742188 36.671875 152.113281 C 34.800781 148.050781 33.035156 143.347656 31.367188 138.003906 C 30.085938 133.011719 29.257812 128.949219 28.882812 125.816406 L 28.386719 119.640625 L 28.378906 113.515625 L 28.824219 107.398438 L 29.75 101.355469 L 31.152344 95.386719 C 34.371094 84.628906 38.476562 75.742188 43.472656 68.730469 C 50.488281 58.445312 58.652344 49.632812 67.972656 42.289062 M 33.96875 155.96875 L 38.328125 162.632812 L 42.6875 169.300781 C 42.75 169.4375 42.8125 169.570312 42.875 169.707031 C 40.195312 165.878906 37.511719 162.050781 34.828125 158.226562 C 34.542969 157.472656 34.253906 156.71875 33.96875 155.96875 M 76.839844 209.167969 L 77.480469 209.269531 L 78.125 209.375 L 79.246094 210 L 77.960938 209.640625 L 76.921875 209.285156 L 76.839844 209.167969 M 140.1875 0.964844 L 135.96875 1.003906 C 127.871094 0.398438 110.964844 2.050781 85.242188 5.960938 C 70.050781 10.601562 58.929688 15.707031 51.871094 21.269531 C 42.875 29.347656 36.015625 36.273438 31.292969 42.039062 C 25.910156 48.71875 25.335938 49.570312 29.570312 44.589844 C 24.042969 50.957031 21.203125 54.511719 21.046875 55.246094 C 18.726562 58.609375 15.828125 63.453125 12.347656 69.773438 C 6.339844 80.792969 2.566406 94.597656 1.023438 111.1875 C 0.363281 125.652344 2.40625 140.289062 7.160156 155.09375 C 15.28125 176.980469 22.878906 190.960938 29.953125 197.035156 C 40.734375 207.53125 51.878906 214.472656 63.382812 217.863281 C 69.621094 220.019531 76.441406 221.75 83.835938 223.054688 L 95.363281 224.695312 L 107.757812 225.695312 L 121.019531 226.054688 L 120.382812 226.070312 C 118.917969 226.089844 119.339844 225.890625 121.65625 225.480469 C 127.78125 225.5625 138.328125 224.417969 153.296875 222.054688 C 157.160156 221.347656 162.136719 220.03125 168.222656 218.109375 C 172.714844 216.957031 181.984375 212.875 196.039062 205.855469 L 211.527344 195.226562 C 225.027344 182.621094 234.109375 171.78125 238.777344 162.710938 C 244.464844 146.46875 246.851562 136.492188 245.933594 132.78125 C 245.628906 138.804688 244.5625 144.664062 242.730469 150.347656 C 240.898438 156.035156 238.304688 161.550781 234.945312 166.894531 L 229.328125 174.785156 C 221.082031 185.136719 209.773438 194.804688 195.410156 203.792969 L 172.957031 214.246094 C 165.65625 216.636719 158.441406 218.570312 151.320312 220.039062 C 141.507812 221.761719 126.160156 222.105469 105.277344 221.074219 L 87.425781 218.777344 L 64.242188 212.621094 L 42.902344 201.15625 L 26.898438 184.96875 C 20.972656 175.75 16.082031 165.445312 12.21875 154.058594 C 7.457031 137.222656 5.359375 123.519531 5.921875 112.953125 C 6.804688 103.234375 8.15625 95.273438 9.976562 89.070312 L 12.492188 82.398438 L 11.746094 85.636719 L 17.257812 72.53125 L 21.71875 65.257812 L 20.269531 71.707031 C 18.125 75.234375 15.617188 81.5 12.75 90.507812 C 10.894531 97.566406 9.832031 103.304688 9.558594 107.71875 C 8.296875 120.421875 10.019531 134.601562 14.714844 150.265625 C 19.441406 164.953125 26.496094 177.96875 35.886719 189.3125 C 43.71875 197.554688 54.289062 204.214844 67.597656 209.285156 C 83 213.367188 97.289062 216.40625 110.457031 218.398438 C 123.148438 219.421875 136.757812 218.824219 151.289062 216.609375 C 170.238281 211.226562 188.265625 201.988281 205.375 188.882812 C 211.933594 183.523438 219.074219 175.695312 226.796875 165.402344 C 229.992188 161.28125 232.832031 155.582031 235.308594 148.300781 C 242.152344 122.03125 242.765625 99.785156 237.144531 81.566406 C 229.921875 58.453125 220.109375 41.410156 207.703125 30.449219 C 217.851562 39.195312 226.777344 54.695312 234.476562 76.945312 C 239.9375 90.824219 241.457031 106.925781 239.035156 125.246094 C 236.511719 142.808594 232.8125 155.070312 227.9375 162.027344 C 214.339844 180.5 200.792969 193.039062 187.292969 199.644531 L 211.316406 178.671875 C 216.988281 172.945312 222.394531 166.175781 227.539062 158.355469 L 234.007812 141.578125 L 237.566406 123.78125 C 239.464844 111.734375 238.617188 98.035156 235.027344 82.679688 C 232.253906 71.324219 226.871094 59.09375 218.871094 45.996094 C 214.683594 39.871094 207.664062 32.351562 197.808594 23.433594 C 189.472656 17.09375 181.046875 12.089844 172.53125 8.425781 C 161.851562 4.433594 155.414062 2.4375 153.226562 2.445312 C 148.902344 1.617188 144.554688 1.125 140.1875 0.964844 " fill-opacity="1" fill-rule="nonzero"/></g><path fill="#bf5848" d="M 163.363281 89.742188 L 120.28125 19.277344 L 80.363281 89.261719 C 71.066406 104.09375 70.257812 123.375 80.019531 139.347656 C 93.898438 162.050781 123.804688 169.339844 146.824219 155.644531 C 169.835938 141.953125 177.242188 112.460938 163.363281 89.742188 Z M 163.363281 89.742188 " fill-opacity="1" fill-rule="nonzero"/><g fill="#e6c049" fill-opacity="1"><g transform="translate(60.495003, 199.737825)"><g><path d="M 0.859375 0 L 0.859375 -0.390625 L 1.671875 -0.65625 C 2.179688 -0.84375 2.515625 -1.082031 2.671875 -1.375 C 2.828125 -1.675781 2.90625 -2.097656 2.90625 -2.640625 L 2.90625 -22.90625 C 2.90625 -23.414062 2.832031 -23.816406 2.6875 -24.109375 C 2.550781 -24.410156 2.238281 -24.65625 1.75 -24.84375 L 0.859375 -25.1875 L 0.859375 -25.578125 L 11.9375 -25.578125 C 14.976562 -25.578125 17.3125 -25 18.9375 -23.84375 C 20.570312 -22.695312 21.390625 -21.101562 21.390625 -19.0625 C 21.390625 -17.925781 20.960938 -16.789062 20.109375 -15.65625 C 19.253906 -14.519531 17.910156 -13.640625 16.078125 -13.015625 L 21.46875 -2.328125 C 21.695312 -1.890625 21.957031 -1.535156 22.25 -1.265625 C 22.550781 -0.992188 22.945312 -0.753906 23.4375 -0.546875 L 23.953125 -0.34375 L 23.953125 0 L 17.015625 0 L 11.28125 -12.203125 L 8.640625 -12.203125 L 8.640625 -2.640625 C 8.640625 -2.148438 8.71875 -1.75 8.875 -1.4375 C 9.03125 -1.125 9.351562 -0.890625 9.84375 -0.734375 L 10.765625 -0.390625 L 10.765625 0 Z M 8.640625 -12.984375 L 10.5 -12.984375 C 12.363281 -12.984375 13.707031 -13.476562 14.53125 -14.46875 C 15.351562 -15.46875 15.765625 -16.945312 15.765625 -18.90625 C 15.765625 -20.894531 15.378906 -22.375 14.609375 -23.34375 C 13.835938 -24.3125 12.53125 -24.796875 10.6875 -24.796875 L 8.640625 -24.796875 Z M 8.640625 -12.984375 "/></g></g></g><g fill="#e6c049" fill-opacity="1"><g transform="translate(84.205845, 199.737825)"><g><path d="M 10.5 -19.21875 C 12.175781 -19.21875 13.609375 -18.875 14.796875 -18.1875 C 15.984375 -17.507812 16.894531 -16.582031 17.53125 -15.40625 C 18.164062 -14.226562 18.484375 -12.890625 18.484375 -11.390625 C 18.484375 -11.109375 18.46875 -10.816406 18.4375 -10.515625 C 18.414062 -10.222656 18.367188 -9.957031 18.296875 -9.71875 L 6.75 -9.71875 C 6.769531 -6.9375 7.265625 -4.929688 8.234375 -3.703125 C 9.203125 -2.472656 10.644531 -1.859375 12.5625 -1.859375 C 13.851562 -1.859375 14.894531 -2.0625 15.6875 -2.46875 C 16.488281 -2.882812 17.238281 -3.492188 17.9375 -4.296875 L 18.328125 -3.953125 C 17.523438 -2.535156 16.457031 -1.425781 15.125 -0.625 C 13.800781 0.175781 12.207031 0.578125 10.34375 0.578125 C 8.507812 0.578125 6.878906 0.183594 5.453125 -0.59375 C 4.035156 -1.382812 2.925781 -2.515625 2.125 -3.984375 C 1.332031 -5.460938 0.9375 -7.222656 0.9375 -9.265625 C 0.9375 -11.378906 1.398438 -13.175781 2.328125 -14.65625 C 3.253906 -16.144531 4.445312 -17.273438 5.90625 -18.046875 C 7.363281 -18.828125 8.894531 -19.21875 10.5 -19.21875 Z M 10.390625 -18.4375 C 9.640625 -18.4375 9 -18.210938 8.46875 -17.765625 C 7.9375 -17.316406 7.519531 -16.515625 7.21875 -15.359375 C 6.925781 -14.210938 6.769531 -12.59375 6.75 -10.5 L 13.375 -10.5 C 13.625 -13.3125 13.515625 -15.335938 13.046875 -16.578125 C 12.585938 -17.816406 11.703125 -18.4375 10.390625 -18.4375 Z M 10.390625 -18.4375 "/></g></g></g><g fill="#e6c049" fill-opacity="1"><g transform="translate(103.848669, 199.737825)"><g><path d="M 0.78125 0 L 0.78125 -0.390625 L 1.3125 -0.546875 C 2.21875 -0.804688 2.671875 -1.4375 2.671875 -2.4375 L 2.671875 -14.5625 C 2.671875 -15.132812 2.578125 -15.554688 2.390625 -15.828125 C 2.210938 -16.097656 1.867188 -16.285156 1.359375 -16.390625 L 0.78125 -16.546875 L 0.78125 -16.9375 L 7.40625 -19.1875 L 7.78125 -18.796875 L 8.09375 -16.46875 C 9 -17.269531 10.019531 -17.925781 11.15625 -18.4375 C 12.289062 -18.957031 13.414062 -19.21875 14.53125 -19.21875 C 16.238281 -19.21875 17.550781 -18.753906 18.46875 -17.828125 C 19.382812 -16.898438 19.84375 -15.476562 19.84375 -13.5625 L 19.84375 -2.40625 C 19.84375 -1.394531 20.332031 -0.757812 21.3125 -0.5 L 21.65625 -0.390625 L 21.65625 0 L 12.515625 0 L 12.515625 -0.390625 L 13.015625 -0.546875 C 13.921875 -0.828125 14.375 -1.457031 14.375 -2.4375 L 14.375 -14.796875 C 14.375 -16.453125 13.546875 -17.28125 11.890625 -17.28125 C 10.753906 -17.28125 9.515625 -16.710938 8.171875 -15.578125 L 8.171875 -2.40625 C 8.171875 -1.394531 8.625 -0.757812 9.53125 -0.5 L 9.875 -0.390625 L 9.875 0 Z M 0.78125 0 "/></g></g></g><g fill="#e6c049" fill-opacity="1"><g transform="translate(126.24226, 199.737825)"><g><path d="M 10.578125 0.578125 C 8.617188 0.578125 6.914062 0.167969 5.46875 -0.640625 C 4.019531 -1.453125 2.898438 -2.609375 2.109375 -4.109375 C 1.328125 -5.609375 0.9375 -7.363281 0.9375 -9.375 C 0.9375 -11.394531 1.351562 -13.140625 2.1875 -14.609375 C 3.03125 -16.078125 4.179688 -17.210938 5.640625 -18.015625 C 7.097656 -18.816406 8.742188 -19.21875 10.578125 -19.21875 C 12.410156 -19.21875 14.050781 -18.820312 15.5 -18.03125 C 16.945312 -17.25 18.085938 -16.117188 18.921875 -14.640625 C 19.765625 -13.171875 20.1875 -11.414062 20.1875 -9.375 C 20.1875 -7.332031 19.789062 -5.566406 19 -4.078125 C 18.21875 -2.597656 17.109375 -1.453125 15.671875 -0.640625 C 14.242188 0.167969 12.546875 0.578125 10.578125 0.578125 Z M 10.578125 -0.1875 C 11.484375 -0.1875 12.207031 -0.445312 12.75 -0.96875 C 13.289062 -1.488281 13.679688 -2.40625 13.921875 -3.71875 C 14.171875 -5.039062 14.296875 -6.898438 14.296875 -9.296875 C 14.296875 -11.722656 14.171875 -13.59375 13.921875 -14.90625 C 13.679688 -16.226562 13.289062 -17.144531 12.75 -17.65625 C 12.207031 -18.175781 11.484375 -18.4375 10.578125 -18.4375 C 9.671875 -18.4375 8.941406 -18.175781 8.390625 -17.65625 C 7.835938 -17.144531 7.4375 -16.226562 7.1875 -14.90625 C 6.9375 -13.59375 6.8125 -11.722656 6.8125 -9.296875 C 6.8125 -6.898438 6.9375 -5.039062 7.1875 -3.71875 C 7.4375 -2.40625 7.835938 -1.488281 8.390625 -0.96875 C 8.941406 -0.445312 9.671875 -0.1875 10.578125 -0.1875 Z M 10.578125 -0.1875 "/></g></g></g><g fill="#e6c049" fill-opacity="1"><g transform="translate(147.124862, 199.737825)"><g><path d="M 9.453125 0.109375 L 2.59375 -16.359375 C 2.226562 -17.234375 1.609375 -17.8125 0.734375 -18.09375 L 0.1875 -18.25 L 0.1875 -18.640625 L 10.234375 -18.640625 L 10.234375 -18.25 L 9.53125 -18.09375 C 8.519531 -17.832031 8.210938 -17.160156 8.609375 -16.078125 L 12.671875 -5.265625 L 16.46875 -16 C 16.675781 -16.519531 16.726562 -16.945312 16.625 -17.28125 C 16.519531 -17.613281 16.207031 -17.859375 15.6875 -18.015625 L 14.71875 -18.25 L 14.71875 -18.640625 L 20.34375 -18.640625 L 20.34375 -18.25 L 19.21875 -17.984375 C 18.726562 -17.847656 18.347656 -17.648438 18.078125 -17.390625 C 17.804688 -17.140625 17.582031 -16.753906 17.40625 -16.234375 L 11.703125 0.109375 Z M 9.453125 0.109375 "/></g></g></g><g fill="#e6c049" fill-opacity="1"><g transform="translate(166.767651, 199.737825)"><g><path d="M 6.4375 0.578125 C 4.9375 0.578125 3.675781 0.152344 2.65625 -0.6875 C 1.632812 -1.539062 1.125 -2.769531 1.125 -4.375 C 1.125 -5.59375 1.742188 -6.710938 2.984375 -7.734375 C 4.222656 -8.753906 6.171875 -9.519531 8.828125 -10.03125 C 9.242188 -10.113281 9.707031 -10.195312 10.21875 -10.28125 C 10.738281 -10.375 11.285156 -10.472656 11.859375 -10.578125 L 11.859375 -13.640625 C 11.859375 -15.398438 11.644531 -16.632812 11.21875 -17.34375 C 10.789062 -18.050781 10.125 -18.40625 9.21875 -18.40625 C 8.601562 -18.40625 8.113281 -18.203125 7.75 -17.796875 C 7.382812 -17.398438 7.148438 -16.710938 7.046875 -15.734375 L 6.96875 -15.3125 C 6.914062 -14.195312 6.644531 -13.378906 6.15625 -12.859375 C 5.664062 -12.347656 5.0625 -12.09375 4.34375 -12.09375 C 3.664062 -12.09375 3.109375 -12.296875 2.671875 -12.703125 C 2.234375 -13.117188 2.015625 -13.675781 2.015625 -14.375 C 2.015625 -15.4375 2.378906 -16.328125 3.109375 -17.046875 C 3.847656 -17.773438 4.820312 -18.316406 6.03125 -18.671875 C 7.25 -19.035156 8.570312 -19.21875 10 -19.21875 C 12.300781 -19.21875 14.078125 -18.65625 15.328125 -17.53125 C 16.578125 -16.40625 17.203125 -14.578125 17.203125 -12.046875 L 17.203125 -3.484375 C 17.203125 -2.328125 17.742188 -1.75 18.828125 -1.75 L 19.6875 -1.75 L 20.03125 -1.4375 C 19.539062 -0.8125 19.003906 -0.332031 18.421875 0 C 17.835938 0.332031 17.019531 0.5 15.96875 0.5 C 14.832031 0.5 13.929688 0.238281 13.265625 -0.28125 C 12.609375 -0.8125 12.175781 -1.519531 11.96875 -2.40625 C 11.195312 -1.570312 10.40625 -0.863281 9.59375 -0.28125 C 8.78125 0.289062 7.726562 0.578125 6.4375 0.578125 Z M 8.796875 -1.78125 C 9.316406 -1.78125 9.800781 -1.898438 10.25 -2.140625 C 10.695312 -2.390625 11.234375 -2.773438 11.859375 -3.296875 L 11.859375 -9.796875 C 11.597656 -9.742188 11.335938 -9.691406 11.078125 -9.640625 C 10.816406 -9.597656 10.519531 -9.550781 10.1875 -9.5 C 9 -9.1875 8.050781 -8.660156 7.34375 -7.921875 C 6.632812 -7.179688 6.28125 -6.191406 6.28125 -4.953125 C 6.28125 -3.898438 6.523438 -3.109375 7.015625 -2.578125 C 7.503906 -2.046875 8.097656 -1.78125 8.796875 -1.78125 Z M 8.796875 -1.78125 "/></g></g></g></svg>